<?xml version="1.0" encoding="iso-8859-1"?>
<!-- Generator: Adobe Illustrator 19.0.0, SVG Export Plug-In . SVG Version: 6.00 Build 0)  -->
<svg version="1.1" id="Layer_1" xmlns="http://www.w3.org/2000/svg" xmlns:xlink="http://www.w3.org/1999/xlink" x="0px" y="0px"
	 viewBox="0 0 511.999 511.999" style="enable-background:new 0 0 511.999 511.999;" xml:space="preserve">
<g>
	<g>
		<path d="M207.339,183.547l-0.145-0.377c-1.975-5.158-7.759-7.736-12.915-5.763c-5.158,1.975-7.738,7.757-5.763,12.915l0.145,0.377
			c1.525,3.982,5.318,6.427,9.341,6.427c1.188,0,2.398-0.214,3.574-0.664C206.734,194.487,209.314,188.705,207.339,183.547z"/>
	</g>
</g>
<g>
	<g>
		<path d="M509.777,374.7L243.096,44.712c-0.006,0.002-0.011,0.002-0.017,0.004c-1.719-2.123-4.257-3.501-7.074-3.695
			c-3.885-0.26-7.574,1.747-9.45,5.16l-225.319,410c-1.702,3.098-1.643,6.865,0.156,9.908c1.8,3.042,5.072,4.909,8.607,4.909h92.564
			c0.011,0,0.021,0.002,0.032,0.002c0.01,0,0.02-0.002,0.03-0.002h20.215c0.026,0,0.052,0.003,0.077,0.003
			c0.021,0,0.043-0.003,0.065-0.003h72.187c0.011,0,0.021,0.002,0.032,0.002c0.01,0,0.02-0.002,0.03-0.002h17.304
			c0.026,0,0.052,0.003,0.077,0.003c0.021,0,0.043-0.003,0.065-0.003H392c2.089,0,4.153-0.656,5.881-1.913l110-80.012
			c2.217-1.612,3.674-4.063,4.032-6.779C512.272,379.577,511.5,376.831,509.777,374.7z M390.727,317.624l-72.191-76.878
			l-18.974-49.651l68.542,69.102L390.727,317.624z M300.29,249.027l-40.277,73.289l-28.609-74.864l40.281-73.277L300.29,249.027z
			 M345.829,203.651l3.717,9.436l-67.639-68.191l-2.068-5.41l-12.678-33.177L345.829,203.651z M233.684,74.735l28.641,74.948
			l-40.281,73.277l-4.932-12.905c-1.972-5.159-7.754-7.745-12.91-5.771c-5.159,1.972-7.743,7.752-5.771,12.911l10.983,28.741
			l-40.282,73.279l-28.631-74.92L233.684,74.735z M96.689,450.998H26.906l48.062-87.456l28.623,74.901L96.689,450.998z
			 M116.22,415.467l-28.625-74.904l40.278-73.29l28.629,74.916L116.22,415.467z M189.295,450.998h-59.496l-4.218-11.038
			l40.282-73.278l28.616,74.883L189.295,450.998z M207.107,418.586l-28.615-74.879l40.282-73.279l28.611,74.867L207.107,418.586z
			 M281.899,450.998h-62.406l-3.026-7.918l40.278-73.291l28.622,74.899L281.899,450.998z M269.373,346.81l40.277-73.289
			l28.622,74.898l-40.277,73.289L269.373,346.81z M309.189,450.998l-1.833-4.796l40.277-73.289l2.277,5.958l27.563,72.127H309.189z
			 M396.678,445.229l-59.315-155.216l73.192,77.944l20.57,52.217L396.678,445.229z M447.833,408.02l-0.248-0.63l0.452,0.482
			L447.833,408.02z M464.339,396.014l-36.582-38.957l-23.996-60.913l82.933,83.61L464.339,396.014z"/>
	</g>
</g>
<g>
	<g>
		<path d="M426.46,433.38l-66.083-81.771c-3.471-4.296-9.769-4.964-14.063-1.492c-4.296,3.471-4.964,9.768-1.492,14.063
			l66.083,81.771c1.975,2.445,4.866,3.715,7.783,3.715c2.207,0,4.43-0.727,6.28-2.223
			C429.264,443.972,429.932,437.675,426.46,433.38z"/>
	</g>
</g>
</svg>
